<svg xmlns="http://www.w3.org/2000/svg" xmlns:svg="http://www.w3.org/2000/svg" id="Layer_1" width="1280" height="640" x="0" y="0" enable-background="new 0 0 115.333 114" version="1.1" viewBox="0 0 1280 640" xml:space="preserve"><metadata id="metadata4509"/><flowRoot style="font-style:normal;font-weight:400;font-size:40px;line-height:1.25;font-family:sans-serif;letter-spacing:0;word-spacing:0;fill:#000;fill-opacity:1;stroke:none" id="flowRoot7089" transform="translate(-278.2718,360.53413)" xml:space="preserve"><flowRegion id="flowRegion7091"><rect id="rect7093" width="90.694" height="51.883" x="339.116" y="-79.625"/></flowRegion><flowPara id="flowPara7095"/></flowRoot><g id="g1246" transform="matrix(3,0,0,3,-582.77501,-320.86476)"><g id="g154" transform="translate(-0.22500053)"><g id="g1202" transform="translate(-1.1581421e-6,3.3333334)"><path style="fill:none;fill-opacity:1;fill-rule:evenodd;stroke:#e6522c;stroke-width:3.77952766;stroke-linecap:round;stroke-linejoin:round;stroke-miterlimit:4;stroke-dasharray:none;stroke-opacity:1" id="path7109" d="m 269.17676,151.72212 v 9.78254 c 0,0.31059 0.0628,0.60594 0.17599,0.87442 0.11318,0.26847 0.27703,0.51034 0.4797,0.71301 0.20267,0.20267 0.44404,0.36652 0.71251,0.47969 0.26848,0.11318 0.56382,0.17549 0.87442,0.17549 h 9.39586 v -0.2318 l -11.52835,-11.79335 z" clip-path="none"/><path style="fill:none;fill-opacity:1;fill-rule:evenodd;stroke:#e6522c;stroke-width:3.77952766;stroke-linecap:round;stroke-linejoin:round;stroke-miterlimit:4;stroke-dasharray:none;stroke-opacity:1" id="path7328" d="m 269.17676,151.72212 h -40.58934 c -1.35546,0 -2.44677,1.09131 -2.44677,2.44677 v 56.5974 c 0,1.35546 1.09131,2.44626 2.44677,2.44626 h 49.78106 c 1.35546,0 2.44676,-1.0908 2.44676,-2.44626 v -47.01902 h -9.39586 c -0.3106,0 -0.60594,-0.0623 -0.87442,-0.17548 -0.26848,-0.11318 -0.50984,-0.27703 -0.71251,-0.4797 -0.20267,-0.20267 -0.36651,-0.44454 -0.47969,-0.71302 -0.11318,-0.26847 -0.176,-0.56382 -0.176,-0.87441 z" clip-path="none"/><path style="opacity:.997;fill:#e6522c;fill-opacity:1;stroke-width:.37011617" id="path5275" d="m 254.48741,157.31662 c -1.35607,0.0818 -2.71183,2.47468 -2.71183,4.53468 0,1.98963 -0.53756,5.23441 -1.82177,7.01132 -0.0873,-3.83731 -1.37966,-6.2912 -2.58765,-6.38965 1.24116,3.17226 -2.19893,7.09641 -2.19893,11.58771 0,2.04577 0.79654,4.04756 2.138,5.62202 -1.39714,-0.25503 -2.35318,-0.47648 -2.35318,-0.47648 -1.8572,-0.41833 -4.47557,-1.00038 -4.46727,-0.95451 0.49243,1.39258 0.99925,2.7597 3.15223,5.37722 0.0671,0.0815 0.13797,0.1599 0.20748,0.24017 h 20.8979 c 2.67937,-2.765 3.37707,-5.63632 3.37668,-5.63593 l -4.79892,0.93752 c 0,0 -1.02048,0.25066 -2.49819,0.52823 1.29961,-1.53769 2.07012,-3.50496 2.07012,-5.59423 0,-3.11611 -0.75855,-4.76328 -2.00918,-6.93795 -0.77519,-1.3479 -1.90816,-4.15202 -0.92091,-6.39273 -2.23789,1.77928 -2.84415,6.93278 -2.97408,10.46484 -0.39173,-1.70059 -0.32707,-4.38227 -0.83452,-5.97572 -1.35292,-4.24219 -2.87475,-5.95175 -1.66598,-7.94651 z" clip-path="none" mask="none"/><rect style="fill:#e6522c;fill-opacity:1;stroke:#e6522c;stroke-width:1.45954967;stroke-miterlimit:4;stroke-dasharray:none;stroke-opacity:1" id="rect3763" width="29.848" height="4.865" x="230.14" y="187.462" clip-path="none" ry="2.766"/><rect style="fill:#e6522c;fill-opacity:1;stroke:#e6522c;stroke-width:1.45954967;stroke-miterlimit:4;stroke-dasharray:none;stroke-opacity:1" id="rect3763-3" width="14.276" height="4.865" x="262.647" y="187.462" clip-path="none" ry="2.175"/><rect style="fill:#e6522c;fill-opacity:1;stroke:#e6522c;stroke-width:1.45954967;stroke-miterlimit:4;stroke-dasharray:none;stroke-opacity:1" id="rect3763-92" width="29.848" height="4.865" x="230.14" y="202.752" clip-path="none" ry="2.766"/><rect style="fill:#e6522c;fill-opacity:1;stroke:#e6522c;stroke-width:1.45954967;stroke-miterlimit:4;stroke-dasharray:none;stroke-opacity:1" id="rect3763-3-2" width="14.276" height="4.865" x="262.647" y="202.752" clip-path="none" ry="2.175"/><rect style="fill:#e6522c;fill-opacity:1;stroke:#e6522c;stroke-width:1.45954967;stroke-miterlimit:4;stroke-dasharray:none;stroke-opacity:1" id="rect3763-8" width="29.848" height="4.865" x="247.075" y="195.107" clip-path="none" ry="2.766"/><rect style="fill:#e6522c;fill-opacity:1;stroke:#e6522c;stroke-width:1.45954967;stroke-miterlimit:4;stroke-dasharray:none;stroke-opacity:1" id="rect3763-3-9" width="14.276" height="4.865" x="230.14" y="195.107" clip-path="none" ry="2.175"/></g><g id="g137"><text style="font-style:normal;font-weight:400;font-size:40px;line-height:1.25;font-family:sans-serif;letter-spacing:0;word-spacing:0;fill:#000;fill-opacity:1;stroke:none" id="text136" x="329.223" y="195.981" xml:space="preserve"><tspan id="tspan134" x="329.223" y="195.981" style="font-style:normal;font-variant:normal;font-weight:700;font-stretch:normal;line-height:50px;font-family:System-ui;-inkscape-font-specification:'System-ui Bold';fill:#333">grok_exporter</tspan></text><text style="font-style:normal;font-weight:400;font-size:40px;line-height:1.25;font-family:sans-serif;letter-spacing:0;word-spacing:0;fill:#000;fill-opacity:1;stroke:none" id="text136-1" x="297.004" y="198.341" xml:space="preserve"><tspan id="tspan134-2" x="297.004" y="198.341" style="font-style:normal;font-variant:normal;font-weight:700;font-stretch:normal;line-height:50px;font-family:System-ui;-inkscape-font-specification:'System-ui Bold';fill:#333">&gt;</tspan></text></g></g><text id="text122" x="216.885" y="254.904" xml:space="preserve" style="font-style:normal;font-weight:400;font-size:13.33333302px;line-height:1.25;font-family:sans-serif;letter-spacing:0;word-spacing:0;fill:#000;fill-opacity:1;stroke:none;stroke-width:.33333334"><tspan style="font-style:normal;font-variant:normal;font-weight:400;font-stretch:normal;font-family:System-ui;-inkscape-font-specification:System-ui;fill:#333;stroke-width:.33333334" id="tspan120" x="216.885" y="254.904">Export Prometheus metrics from arbitrary unstructured log data.</tspan></text></g></svg>